HIERARCHY
ROOT Hips
{
	OFFSET 0.00000 0.00000 0.00000
	CHANNELS 6 Xposition Yposition Zposition Yrotation Zrotation Xrotation 
	JOINT Lumbar
	{
		OFFSET 0 0 0
		CHANNELS 3 Zrotation Xrotation Yrotation
		JOINT Neck
		{
			OFFSET 0.00 0.2701 0.00
			CHANNELS 3 Zrotation Xrotation Yrotation
			End Site
			{
				OFFSET 0.00 0.1379 0.00
			}
		}
		JOINT RightShoulder
		{
			OFFSET 0.0119 0.2289 0.1181
			CHANNELS 3 Zrotation Xrotation Yrotation
			JOINT RightElbow
			{
				OFFSET 0.00 -0.1475 0.00
				CHANNELS 2 Zrotation Yrotation
				JOINT RightWrist
				{
					OFFSET 0.00 -0.1605 0.00
					CHANNELS 2 Zrotation Xrotation
					End Site
					{
						OFFSET 0.0040 -0.1068 0.0006
					}
				}
			}
		}
		JOINT LeftShoulder
		{
			OFFSET 0.0119 0.2289 -0.1181
			CHANNELS 3 Zrotation Xrotation Yrotation
			JOINT LeftElbow
			{
				OFFSET 0.00 -0.1475 0.00
				CHANNELS 2 Zrotation Yrotation
				JOINT LeftWrist
				{
					OFFSET 0.00 -0.1605 0.00
					CHANNELS 2 Zrotation Xrotation
					End Site
					{
						OFFSET 0.0040 -0.1068 -0.0006
					}
				}
			}
		}
	}
	JOINT RightHip
	{
		OFFSET 0.0316 -0.0424 0.0458
		CHANNELS 3 Zrotation Xrotation Yrotation
		JOINT RightKnee
		{
			OFFSET 0.00 -0.2438 0.00
			CHANNELS 1 Zrotation
			JOINT RightAnkle
			{
				OFFSET 0.00 -0.2449 0.00
				CHANNELS 3 Zrotation Xrotation Yrotation
				End Site
				{
					OFFSET 0.1237 -0.0542 0.0051
				}
			}
		}
	}
	JOINT LeftHip
	{
		OFFSET 0.0316 -0.0424 -0.0458
		CHANNELS 3 Zrotation Xrotation Yrotation
		JOINT LeftKnee
		{
			OFFSET 0.00 -0.2438 0.00
			CHANNELS 1 Zrotation
			JOINT LeftAnkle
			{
				OFFSET 0.00 -0.2449 0.00
				CHANNELS 3 Zrotation Xrotation Yrotation
				End Site
				{
					OFFSET 0.1237 -0.0542 -0.0051
				}
			}
		}
	}
}
MOTION
Frames: 11
Frame Time: 0.02
-0.28615 -0.01432 0.00467 254.07076 -43.28059 0.50705 25.67025 13.9152 -2.01014 5.1615 3.46855 -2.11966 29.55761 -25.14891 -21.0469 26.8353 81.77291 -6.71281 5.05683 8.36503 5.2065 -48.59834 80.02547 -83.35051 -0.50009 -0.24548 67.36938 -8.48635 -7.49859 -41.35201 -6.74819 -2.03282 -3.23642 66.12609 8.82101 9.50239 -44.3802 -7.65892 3.34524 3.88295
-0.28181 -0.01402 0.00529 254.33217 -43.06135 0.93287 25.66063 13.92679 -2.32937 4.69053 3.42036 -2.11966 29.27622 -24.3483 -20.61488 27.24937 81.64225 -6.97412 4.87405 8.00176 5.13488 -48.33845 79.65746 -83.03116 -0.63928 0.01736 67.2236 -9.19171 -6.93518 -41.31366 -6.76153 -2.0305 -3.23522 65.52391 9.72611 9.88941 -44.79226 -7.59876 3.19078 3.80669
-0.27718 -0.01333 0.00626 254.81502 -42.77263 1.47159 25.74147 13.82634 -2.86408 4.10537 3.41784 -2.11966 28.62396 -23.3472 -19.93476 27.90704 81.52359 -7.05889 4.61097 7.81434 5.11039 -48.36363 79.05358 -83.07908 -0.70633 -0.1065 66.84021 -10.01028 -6.3785 -41.05632 -6.77835 -2.04586 -3.24246 64.5332 10.8246 10.31312 -44.87941 -7.50223 2.86337 3.64732
-0.27264 -0.01283 0.00707 255.18172 -42.51769 1.94579 25.78142 13.77434 -3.28669 3.58484 3.39647 -2.11966 28.1318 -22.43646 -19.347 28.45189 81.40104 -7.21224 4.392 7.53599 5.07172 -48.24974 78.58902 -82.96173 -0.79736 -0.04347 66.56804 -10.77577 -5.82468 -40.89579 -6.79365 -2.05165 -3.24511 63.71847 11.8263 10.67986 -45.07982 -7.42771 2.6289 3.53291
-0.26827 -0.01228 0.00788 255.6041 -42.25019 2.47345 25.81682 13.73303 -3.76795 3.00457 3.36865 -2.11966 27.67818 -21.51789 -18.84226 29.0088 81.26997 -7.41791 4.14662 7.28857 4.99767 -48.15422 77.99504 -82.82293 -0.92591 -0.00321 66.28714 -11.55372 -5.24511 -40.75884 -6.80866 -2.06182 -3.24989 62.90274 12.87576 11.22715 -45.43162 -7.33174 2.33719 3.38983
-0.26348 -0.01176 0.00879 255.96743 -41.99425 2.91614 25.88552 13.64305 -4.17843 2.5242 3.36461 -2.11966 27.05468 -20.57255 -18.10828 29.59759 81.16055 -7.47172 3.93052 7.02536 5.00945 -48.0961 77.60927 -82.82095 -0.95586 -0.0153 65.96751 -12.32928 -4.71694 -40.51785 -6.8253 -2.06834 -3.25288 62.0007 13.86729 11.4001 -45.3906 -7.27065 2.12203 3.28586
-0.25767 -0.01138 0.00986 256.10689 -41.77879 3.1126 26.01171 13.44204 -4.34387 2.34403 3.41387 -2.11966 26.05825 -19.59865 -16.78535 30.2107 81.10404 -7.14586 3.87162 6.6647 5.25787 -48.07697 77.89346 -83.11558 -0.77197 -0.09548 65.5807 -13.08585 -4.38145 -40.02151 -6.84341 -2.05463 -3.24585 60.92519 14.65677 10.57004 -44.32136 -7.32099 2.16449 3.31266
-0.25142 -0.01108 0.01101 256.18204 -41.57897 3.21699 26.17051 13.1965 -4.4303 2.26973 3.48555 -2.11966 24.90264 -18.6071 -15.2444 30.84784 81.06983 -6.67333 3.83567 6.2863 5.58977 -48.08795 78.38852 -83.53597 -0.48535 -0.21578 65.1651 -13.83308 -4.08942 -39.43001 -6.8635 -2.03787 -3.23736 59.78286 15.37865 9.3559 -42.87292 -7.4063 2.2886 3.38094
-0.24532 -0.01079 0.01214 256.29205 -41.37833 3.35383 26.32332 12.97399 -4.55105 2.1502 3.54737 -2.11966 23.81555 -17.62733 -13.81335 31.47604 81.02826 -6.26987 3.7502 5.92506 5.87698 -48.08454 78.76149 -83.89508 -0.21804 -0.30892 64.77441 -14.57339 -3.7427 -38.89432 -6.88402 -2.02664 -3.23165 58.68985 16.12702 8.28767 -41.60966 -7.47145 2.37258 3.42855
-0.23942 -0.01028 0.01324 256.385 -41.15004 3.53505 26.44369 12.73609 -4.68589 2.01474 3.60906 -2.11966 22.73027 -16.62376 -12.32464 32.10405 80.97549 -5.8505 3.8213 5.53077 6.19429 -48.093 79.23489 -84.28347 -0.05904 -0.45082 64.32766 -15.36309 -3.5397 -38.29838 -6.89878 -1.99878 -3.21741 57.49948 16.90132 7.33225 -40.27347 -7.55367 2.46416 3.48137
-0.23299 -0.01025 0.0144 256.49638 -40.98227 3.59943 26.63605 12.52074 -4.76992 1.93871 3.67621 -2.11966 21.61003 -15.66914 -10.91165 32.73546 80.95101 -5.43124 3.5799 5.19951 6.46806 -48.08105 79.55507 -84.63688 0.34309 -0.49818 63.99136 -16.04843 -3.05253 -37.8079 -6.92628 -2.00427 -3.22033 56.50583 17.60158 6.06208 -39.01275 -7.60875 2.56054 3.53376
